<?xml version="1.0" encoding="UTF-8"?>
<!DOCTYPE svg PUBLIC "-//W3C//DTD SVG 1.1//EN" "http://www.w3.org/Graphics/SVG/1.1/DTD/svg11.dtd">
<svg xmlns="http://www.w3.org/2000/svg" version="1.1" width="50px" height="50px" style="shape-rendering:geometricPrecision; text-rendering:geometricPrecision; image-rendering:optimizeQuality; fill-rule:evenodd; clip-rule:evenodd" xmlns:xlink="http://www.w3.org/1999/xlink">
<g><path style="opacity:0.241" fill="#ebf4e2" d="M -0.5,-0.5 C 0.5,-0.5 1.5,-0.5 2.5,-0.5C 1.48837,0.871651 0.488369,2.20498 -0.5,3.5C -0.5,2.16667 -0.5,0.833333 -0.5,-0.5 Z"/></g>
<g><path style="opacity:0.973" fill="#7dc624" d="M 2.5,-0.5 C 17.1667,-0.5 31.8333,-0.5 46.5,-0.5C 47.1667,0.833333 48.1667,1.83333 49.5,2.5C 49.5,9.16667 49.5,15.8333 49.5,22.5C 26.8333,17.8333 17.8333,26.8333 22.5,49.5C 16.1667,49.5 9.83333,49.5 3.5,49.5C 1.83333,48.5 0.5,47.1667 -0.5,45.5C -0.5,31.5 -0.5,17.5 -0.5,3.5C 0.488369,2.20498 1.48837,0.871651 2.5,-0.5 Z"/></g>
<g><path style="opacity:0.247" fill="#f0f7e9" d="M 46.5,-0.5 C 47.5,-0.5 48.5,-0.5 49.5,-0.5C 49.5,0.5 49.5,1.5 49.5,2.5C 48.1667,1.83333 47.1667,0.833333 46.5,-0.5 Z"/></g>
<g><path style="opacity:0.953" fill="#f2d225" d="M 49.5,22.5 C 49.5,30.1667 49.5,37.8333 49.5,45.5C 48.5,47.1667 47.1667,48.5 45.5,49.5C 37.8333,49.5 30.1667,49.5 22.5,49.5C 17.8333,26.8333 26.8333,17.8333 49.5,22.5 Z"/></g>
<g><path style="opacity:0.25" fill="#f5f9f1" d="M -0.5,45.5 C 0.5,47.1667 1.83333,48.5 3.5,49.5C 2.16667,49.5 0.833333,49.5 -0.5,49.5C -0.5,48.1667 -0.5,46.8333 -0.5,45.5 Z"/></g>
<g><path style="opacity:0.273" fill="#fcf9ed" d="M 49.5,45.5 C 49.5,46.8333 49.5,48.1667 49.5,49.5C 48.1667,49.5 46.8333,49.5 45.5,49.5C 47.1667,48.5 48.5,47.1667 49.5,45.5 Z"/></g>
</svg>
