<?xml version="1.0" standalone="no"?>
<!DOCTYPE svg PUBLIC "-//W3C//DTD SVG 20010904//EN"
 "http://www.w3.org/TR/2001/REC-SVG-20010904/DTD/svg10.dtd">
<svg version="1.0" xmlns="http://www.w3.org/2000/svg"
 width="360.000000pt" height="360.000000pt" viewBox="0 0 360.000000 360.000000"
 preserveAspectRatio="xMidYMid meet">

<g transform="translate(0.000000,360.000000) scale(0.100000,-0.100000)"
fill="#ef0016" stroke="none">
<path d="M756 3579 c-234 -25 -418 -116 -545 -269 -99 -119 -146 -230 -178
-417 -17 -99 -18 -187 -18 -1093 0 -761 3 -1003 13 -1065 37 -228 94 -348 227
-480 135 -136 258 -193 490 -227 70 -10 307 -13 1065 -13 1027 0 1060 1 1229
46 165 44 330 164 424 307 57 88 73 124 105 240 l27 97 0 1085 c0 1012 -1
1091 -18 1170 -68 317 -272 524 -595 602 -86 21 -105 22 -1117 24 -566 1
-1066 -2 -1109 -7z m712 -922 c187 -43 287 -145 313 -321 21 -140 -18 -279
-103 -365 -102 -103 -198 -132 -460 -138 l-188 -5 -2 -272 -3 -271 -90 0 -90
0 -3 685 c-1 377 0 691 3 699 7 19 530 9 623 -12z m1175 -12 c88 -23 237 -105
237 -130 0 -5 -21 -32 -47 -59 -46 -48 -47 -49 -72 -33 -119 75 -206 97 -306
80 -144 -25 -229 -97 -294 -251 -25 -59 -51 -193 -51 -261 l0 -44 23 20 c45
42 150 102 213 123 55 19 82 21 167 18 126 -6 195 -31 267 -95 61 -55 93 -108
114 -189 76 -298 -131 -564 -438 -564 -146 0 -247 40 -344 136 -67 67 -117
158 -148 269 -22 79 -30 328 -14 438 35 240 150 425 314 503 40 19 92 38 117
43 71 14 200 12 262 -4z m-1751 -1864 c57 -35 83 -84 83 -158 0 -54 -4 -66
-31 -100 -58 -72 -79 -78 -254 -78 -166 0 -189 6 -237 57 -28 30 -53 89 -53
126 0 15 12 51 26 79 20 42 35 57 77 78 50 25 57 26 202 23 136 -3 154 -6 187
-27z m514 -13 c28 -31 34 -45 34 -83 0 -59 -43 -110 -102 -122 l-40 -8 61 -48
c33 -27 61 -53 61 -58 0 -5 -21 -9 -47 -9 -46 0 -53 4 -148 86 -55 46 -101 89
-103 94 -2 6 38 10 98 10 104 0 133 7 144 35 6 17 -9 55 -28 67 -6 4 -64 8
-128 8 l-117 0 -3 -147 -3 -148 -37 -3 -38 -3 0 186 0 186 181 -3 181 -3 34
-37z m336 25 c24 -27 218 -333 218 -344 0 -5 -18 -9 -39 -9 -34 0 -42 5 -61
35 l-22 35 -93 0 c-93 0 -94 0 -115 31 l-22 30 -44 -65 c-42 -63 -46 -66 -84
-66 -22 0 -40 3 -40 6 0 7 148 242 202 322 22 32 35 42 57 42 15 0 35 -8 43
-17z m618 11 c0 -3 -9 -19 -21 -35 -20 -29 -20 -29 -130 -29 -126 0 -170 -13
-193 -59 -25 -47 -20 -86 15 -126 l31 -35 149 0 c162 0 168 -3 128 -54 -20
-25 -24 -26 -127 -26 -162 1 -210 17 -259 89 -62 91 -24 213 82 262 33 15 65
19 183 19 78 0 142 -3 142 -6z m108 -141 l3 -143 153 0 c84 0 155 -3 159 -6 6
-7 -21 -54 -38 -66 -16 -12 -314 -9 -336 2 -18 10 -19 23 -19 186 l0 175 38
-3 37 -3 3 -142z m732 141 c0 -3 -8 -19 -17 -34 l-16 -28 -130 -4 -129 -3 -31
-35 -31 -35 167 -3 c92 -1 167 -5 167 -8 0 -3 -8 -19 -17 -35 l-17 -29 -151
-2 -150 -3 32 -32 31 -33 151 0 c83 0 151 -3 151 -6 0 -19 -38 -66 -58 -71
-13 -3 -76 -4 -141 -1 -100 3 -122 7 -154 27 -79 48 -110 157 -68 239 43 85
86 101 269 102 78 0 142 -3 142 -6z m107 -20 c12 -19 11 -24 -5 -44 -35 -43
-97 4 -66 49 19 27 51 24 71 -5z"/>
<path d="M1030 2251 l0 -274 173 6 c234 8 304 32 363 126 23 36 28 58 32 125
6 109 -9 161 -62 211 -60 58 -102 68 -319 74 l-187 6 0 -274z"/>
<path d="M2317 1945 c-62 -26 -135 -76 -179 -122 l-26 -28 14 -74 c36 -188
139 -299 295 -317 108 -12 226 44 274 132 30 53 48 144 40 197 -18 118 -58
177 -145 216 -67 30 -195 28 -273 -4z"/>
<path d="M545 726 c-60 -26 -82 -95 -50 -156 8 -16 24 -34 34 -40 11 -5 85
-10 166 -10 l147 0 29 31 c53 57 35 145 -37 175 -44 19 -247 18 -289 0z"/>
<path d="M1658 654 l-44 -69 43 -3 c24 -2 63 -2 87 0 l45 3 -43 69 -44 68 -44
-68z"/>
</g>
</svg>
